# xmcd
#
# Track frame offsets: 
#        150
#        21463
#        38725
#        54763
#        70663
#        92238
#        107838
#        122038
#        135813
#        154438
#        171088
#        193013
#        213463
#        235438
#        254588
#        269413
#        286563
#        306288
#
# Disc length: 4316 seconds
#
# Revision: 9
# Processed by: cddbd v1.5.2PL0 Copyright (c) Steve Scherf et al.
# Submitted via: ExactAudioCopy v1.3
#
DISCID=0310da12
DTITLE=陳百強 - Danny Chan 2004 XRCD Special
DYEAR=2004
DGENRE=Pop
TTITLE0=有了你
TTITLE1=今宵多珍重
TTITLE2=喝采
TTITLE3=偏偏喜歡你
TTITLE4=一生何求
TTITLE5=念親恩
TTITLE6=漣漪
TTITLE7=幾分鐘的約會
TTITLE8=脈膊奔流
TTITLE9=粉紅色的一生
TTITLE10=疾風
TTITLE11=當我想起你
TTITLE12=一生不可自決
TTITLE13=盼望的緣份
TTITLE14=不再問究竟
TTITLE15=不
TTITLE16=深愛著你
TTITLE17=等
EXTD=
EXTT0=
EXTT1=
EXTT2=
EXTT3=
EXTT4=
EXTT5=
EXTT6=
EXTT7=
EXTT8=
EXTT9=
EXTT10=
EXTT11=
EXTT12=
EXTT13=
EXTT14=
EXTT15=
EXTT16=
EXTT17=
PLAYORDER=
